<svg id="car-city-model" xmlns="http://www.w3.org/2000/svg" width="63.55" height="25.619" viewBox="0 0 63.55 25.619">
  <g id="Gruppe_3" data-name="Gruppe 3" transform="translate(0 0)">
    <path id="Pfad_2" data-name="Pfad 2" d="M87.814,57.2a5.536,5.536,0,0,1-.051.72,5.726,5.726,0,0,1-11.386-.232c-.014-.162-.024-.324-.024-.49a5.731,5.731,0,1,1,11.461,0Zm-9.287-.487h1.647a1.962,1.962,0,0,1,.208-.5l-1.169-1.169A3.569,3.569,0,0,0,78.527,56.715Zm.687,2.665L80.389,58.2a1.945,1.945,0,0,1-.213-.5H78.529A3.587,3.587,0,0,0,79.213,59.38Zm2.373-.272a1.957,1.957,0,0,1-.5-.2l-1.165,1.166a3.539,3.539,0,0,0,1.662.689Zm0-5.462a3.556,3.556,0,0,0-1.674.694l1.167,1.167a1.965,1.965,0,0,1,.506-.211V53.646Zm3.367,1.4-1.169,1.169a1.893,1.893,0,0,1,.207.5H85.64A3.569,3.569,0,0,0,84.954,55.042Zm-2.375.255a1.987,1.987,0,0,1,.506.211l1.167-1.167a3.57,3.57,0,0,0-1.674-.692V55.3Zm1.663,4.775-1.165-1.165a1.917,1.917,0,0,1-.5.2v1.653A3.536,3.536,0,0,0,84.242,60.071Zm1.4-2.363h-1.66a1.99,1.99,0,0,1-.207.5l1.171,1.171A3.592,3.592,0,0,0,85.646,57.708Z" transform="translate(-73.399 -37.313)" fill="#ffcf00"/>
    <path id="Pfad_3" data-name="Pfad 3" d="M21.887,57.2a5.427,5.427,0,0,1-.051.72,5.725,5.725,0,0,1-11.385-.232c-.014-.162-.025-.324-.025-.49a5.731,5.731,0,1,1,11.461,0ZM12.6,56.715h1.647a1.985,1.985,0,0,1,.208-.5l-1.169-1.169A3.57,3.57,0,0,0,12.6,56.715Zm.687,2.665L14.461,58.2a1.945,1.945,0,0,1-.213-.5H12.6A3.594,3.594,0,0,0,13.286,59.38Zm2.374-.272a1.957,1.957,0,0,1-.5-.2L14,60.071a3.539,3.539,0,0,0,1.662.689Zm0-5.462a3.553,3.553,0,0,0-1.674.694l1.167,1.167a1.964,1.964,0,0,1,.506-.211V53.646Zm3.367,1.4-1.169,1.169a1.916,1.916,0,0,1,.207.5h1.647A3.561,3.561,0,0,0,19.027,55.042Zm-2.375.255a1.987,1.987,0,0,1,.506.211l1.167-1.167a3.567,3.567,0,0,0-1.674-.692V55.3Zm1.663,4.775L17.15,58.906a1.922,1.922,0,0,1-.5.2v1.653A3.533,3.533,0,0,0,18.315,60.071Zm1.4-2.363h-1.66a1.967,1.967,0,0,1-.207.5l1.171,1.171A3.585,3.585,0,0,0,19.718,57.708Z" transform="translate(34.953 -37.313)" fill="#ffcf00"/>
    <path id="Pfad_4" data-name="Pfad 4" d="M63.521,46.342l-.652,3.526a1.686,1.686,0,0,1-1.656,1.379H57.922a7.105,7.105,0,0,0,.267-1.886,7.081,7.081,0,0,0-14.161,0c0,.2.014.4.03.6a6.952,6.952,0,0,0,.232,1.282H15.5a7.018,7.018,0,0,0,.267-1.886,7.08,7.08,0,1,0-14.161,0c0,.2.014.4.03.6a7.02,7.02,0,0,0,.233,1.283H1.029S-.395,46.672.106,44.592A3.877,3.877,0,0,1,1.5,42.312a10.66,10.66,0,0,1,1.187-4.835,33.907,33.907,0,0,1,5.563-6.261A5.909,5.909,0,0,1,12.8,29.491c5.541-.015,18.279-.042,21.288.007a8.5,8.5,0,0,1,4.892,1.381.446.446,0,0,1,.212.494.439.439,0,0,1-.425.329h-.113l5.621,5.5s2.22.011,2.96.041c3.678.152,10.294.7,14.3,3.752a2.539,2.539,0,0,1,.981,1.7c.112.877.129,1.848.129,1.848A1.684,1.684,0,0,1,63.521,46.342ZM17.36,31.7H11.553a2.826,2.826,0,0,0-1.739.6A18.264,18.264,0,0,0,6.6,35.56a.7.7,0,0,0,.544,1.121l10.22.144V31.7Zm3.093,0H20.06v5.162l.394.006Zm20.885,5.46L35.76,31.7H23.154v5.2l13.367.188a1.841,1.841,0,0,1-.017-.2,1.44,1.44,0,1,1,2.858,0,1.935,1.935,0,0,1-.021.239Z" transform="translate(0.001 -29.471)" fill="#ffcf00"/>
  </g>
</svg>
