<svg id="car-city-model" xmlns="http://www.w3.org/2000/svg" width="63.55" height="25.619" viewBox="0 0 63.55 25.619">
  <g id="Gruppe_3" data-name="Gruppe 3" transform="translate(0 0)">
    <path id="Pfad_2" data-name="Pfad 2" d="M76.353,57.2a5.536,5.536,0,0,0,.051.72A5.726,5.726,0,0,0,87.79,57.69c.014-.162.024-.324.024-.49a5.731,5.731,0,1,0-11.461,0Zm9.287-.487H83.994a1.962,1.962,0,0,0-.208-.5l1.169-1.169A3.569,3.569,0,0,1,85.64,56.715Zm-.687,2.665L83.779,58.2a1.945,1.945,0,0,0,.213-.5h1.647A3.587,3.587,0,0,1,84.954,59.38Zm-2.373-.272a1.957,1.957,0,0,0,.5-.2l1.165,1.166a3.539,3.539,0,0,1-1.662.689Zm0-5.462a3.556,3.556,0,0,1,1.674.694l-1.167,1.167a1.965,1.965,0,0,0-.506-.211V53.646Zm-3.367,1.4,1.169,1.169a1.893,1.893,0,0,0-.207.5H78.527A3.569,3.569,0,0,1,79.213,55.042Zm2.375.255a1.987,1.987,0,0,0-.506.211l-1.167-1.167a3.57,3.57,0,0,1,1.674-.692V55.3Zm-1.663,4.775,1.165-1.165a1.917,1.917,0,0,0,.5.2v1.653A3.536,3.536,0,0,1,79.925,60.071Zm-1.4-2.363h1.66a1.99,1.99,0,0,0,.207.5l-1.171,1.171A3.592,3.592,0,0,1,78.521,57.708Z" transform="translate(-27.218 -37.313)" fill="#ffcf00"/>
    <path id="Pfad_3" data-name="Pfad 3" d="M10.426,57.2a5.427,5.427,0,0,0,.051.72,5.725,5.725,0,0,0,11.385-.232c.014-.162.025-.324.025-.49a5.731,5.731,0,1,0-11.461,0Zm9.288-.487H18.067a1.985,1.985,0,0,0-.208-.5l1.169-1.169A3.57,3.57,0,0,1,19.714,56.715Zm-.687,2.665L17.852,58.2a1.945,1.945,0,0,0,.213-.5h1.647A3.594,3.594,0,0,1,19.027,59.38Zm-2.374-.272a1.957,1.957,0,0,0,.5-.2l1.165,1.166a3.539,3.539,0,0,1-1.662.689Zm0-5.462a3.553,3.553,0,0,1,1.674.694L17.16,55.507a1.964,1.964,0,0,0-.506-.211V53.646Zm-3.367,1.4,1.169,1.169a1.916,1.916,0,0,0-.207.5H12.6A3.561,3.561,0,0,1,13.286,55.042Zm2.375.255a1.987,1.987,0,0,0-.506.211L13.987,54.34a3.567,3.567,0,0,1,1.674-.692V55.3ZM14,60.071l1.165-1.165a1.922,1.922,0,0,0,.5.2v1.653A3.533,3.533,0,0,1,14,60.071Zm-1.4-2.363h1.66a1.967,1.967,0,0,0,.207.5L13.29,59.376A3.585,3.585,0,0,1,12.595,57.708Z" transform="translate(-3.716 -37.313)" fill="#ffcf00"/>
    <path id="Pfad_4" data-name="Pfad 4" d="M.027,46.342l.652,3.526a1.686,1.686,0,0,0,1.656,1.379H5.627a7.105,7.105,0,0,1-.267-1.886,7.081,7.081,0,0,1,14.161,0c0,.2-.014.4-.03.6a6.952,6.952,0,0,1-.232,1.282h28.8a7.018,7.018,0,0,1-.267-1.886,7.08,7.08,0,1,1,14.161,0c0,.2-.014.4-.03.6a7.02,7.02,0,0,1-.233,1.283h.835s1.423-4.576.923-6.655a3.877,3.877,0,0,0-1.39-2.281,10.66,10.66,0,0,0-1.187-4.835A33.907,33.907,0,0,0,55.3,31.215a5.909,5.909,0,0,0-4.552-1.724c-5.541-.015-18.279-.042-21.288.007a8.5,8.5,0,0,0-4.892,1.381.446.446,0,0,0-.212.494.439.439,0,0,0,.425.329H24.9l-5.621,5.5s-2.22.011-2.96.041c-3.678.152-10.294.7-14.3,3.752a2.539,2.539,0,0,0-.981,1.7C.919,43.574.9,44.545.9,44.545A1.684,1.684,0,0,0,.027,46.342ZM46.189,31.7H52a2.826,2.826,0,0,1,1.739.6,18.264,18.264,0,0,1,3.218,3.261.7.7,0,0,1-.544,1.121l-10.22.144V31.7Zm-3.093,0h.394v5.162l-.394.006ZM22.21,37.162,27.789,31.7H40.395v5.2l-13.367.188a1.841,1.841,0,0,0,.017-.2,1.44,1.44,0,1,0-2.858,0,1.935,1.935,0,0,0,.021.239Z" transform="translate(0.001 -29.471)" fill="#ffcf00"/>
  </g>
</svg>
