<svg xmlns="http://www.w3.org/2000/svg" xmlns:xlink="http://www.w3.org/1999/xlink" width="32" height="32" viewBox="0 0 32 32">
  <defs>
    <clipPath id="clip-profile_menu_icon">
      <rect width="32" height="32"/>
    </clipPath>
  </defs>
  <g id="profile_menu_icon" clip-path="url(#clip-profile_menu_icon)">
    <g id="user" transform="translate(6.075)">
      <path id="Pfad_12" data-name="Pfad 12" d="M166.574,122.689a21.465,21.465,0,0,1-2.479.467l-.046.006a16.7,16.7,0,0,0,8.787,2.659v-.26A9.947,9.947,0,0,1,166.574,122.689Z" transform="translate(-155.005 -115.569)" fill="#232323"/>
      <path id="Pfad_13" data-name="Pfad 13" d="M90.905,138.841a.459.459,0,0,1,.011-.048l.371-1.275a.5.5,0,0,1,.41-.411,1.359,1.359,0,0,0,1.082-1.66.882.882,0,0,0-.7-.668l-.034,0a18.172,18.172,0,0,1-3.81-.36,15.273,15.273,0,0,1-6.953-3.163c-.843.06-1.532.068-1.966.064l-.1,2.2a1.493,1.493,0,0,1-2.139,1.283.874.874,0,0,0-.617.647,1.359,1.359,0,0,0,1.082,1.66.5.5,0,0,1,.41.411l.371,1.275q.007.024.011.048a6.4,6.4,0,0,0,12.572,0Z" transform="translate(-73.691 -123.474)" fill="#232323"/>
      <path id="Pfad_14" data-name="Pfad 14" d="M108.262,31.8a6.9,6.9,0,1,0-13.8,0v3.444a.5.5,0,0,0,.232-.06.481.481,0,0,0,.255-.407l.123-2.689a.5.5,0,0,1,.53-.481,23.575,23.575,0,0,0,3.808-.2,14.175,14.175,0,0,0,6.536-2.331.5.5,0,1,1,.614.8,11.494,11.494,0,0,1-3.435,1.743,9.312,9.312,0,0,0,5.139,2.18Z" transform="translate(-90.431 -24.897)" fill="#232323"/>
      <path id="Pfad_16" data-name="Pfad 16" d="M151.5,315.269v1.888a6.488,6.488,0,0,0,5.578,0v-1.888A7.393,7.393,0,0,1,151.5,315.269Z" transform="translate(-143.36 -294.133)" fill="#232323"/>
      <path id="Pfad_17" data-name="Pfad 17" d="M59.077,358.8l-3.593-3.5a.5.5,0,0,1,.28-.86l.464-.067-3.408-1.105a7.494,7.494,0,0,1-6.692,0l-5.245,1.7a3.354,3.354,0,0,0-2.23,2.285q-.017.063-.032.127a3.128,3.128,0,0,0-.075.717v3.213h20.1Z" transform="translate(-38.545 -329.309)" fill="#232323"/>
    </g>
  </g>
</svg>
