<svg xmlns="http://www.w3.org/2000/svg" xmlns:xlink="http://www.w3.org/1999/xlink" width="32" height="32" viewBox="0 0 32 32">
  <defs>
    <clipPath id="clip-request_menu_icon">
      <rect width="32" height="32"/>
    </clipPath>
  </defs>
  <g id="request_menu_icon" clip-path="url(#clip-request_menu_icon)">
    <g id="car-city-model" transform="translate(0 9.61)">
      <g id="Gruppe_3" data-name="Gruppe 3" transform="translate(0 0)">
        <path id="Pfad_2" data-name="Pfad 2" d="M76.353,54.371a2.8,2.8,0,0,0,.026.364,2.9,2.9,0,0,0,5.762-.117c.007-.082.012-.164.012-.248a2.9,2.9,0,1,0-5.8,0Zm4.7-.246H80.22a.992.992,0,0,0-.105-.255l.592-.592A1.806,1.806,0,0,1,81.053,54.125Zm-.348,1.349-.595-.6a.983.983,0,0,0,.108-.251h.833A1.815,1.815,0,0,1,80.706,55.473Zm-1.2-.138a.99.99,0,0,0,.251-.1l.59.59a1.791,1.791,0,0,1-.841.348Zm0-2.764a1.8,1.8,0,0,1,.847.351l-.591.59a1,1,0,0,0-.256-.107v-.835Zm-1.7.706.591.592a.957.957,0,0,0-.1.255h-.834A1.806,1.806,0,0,1,77.8,53.277Zm1.2.129a1.006,1.006,0,0,0-.256.107l-.59-.59a1.806,1.806,0,0,1,.847-.35v.834Zm-.842,2.416.59-.59a.97.97,0,0,0,.251.1v.837A1.789,1.789,0,0,1,78.161,55.823Zm-.711-1.2h.84a1.007,1.007,0,0,0,.1.251l-.592.593A1.818,1.818,0,0,1,77.45,54.627Z" transform="translate(-51.487 -44.305)" fill="#232323"/>
        <path id="Pfad_3" data-name="Pfad 3" d="M10.426,54.371a2.746,2.746,0,0,0,.026.364,2.9,2.9,0,0,0,5.762-.117c.007-.082.013-.164.013-.248a2.9,2.9,0,1,0-5.8,0Zm4.7-.246h-.834a1,1,0,0,0-.105-.255l.592-.592A1.807,1.807,0,0,1,15.126,54.125Zm-.347,1.349-.595-.6a.984.984,0,0,0,.108-.251h.833A1.819,1.819,0,0,1,14.779,55.473Zm-1.2-.138a.99.99,0,0,0,.251-.1l.59.59a1.791,1.791,0,0,1-.841.348Zm0-2.764a1.8,1.8,0,0,1,.847.351l-.59.59a1,1,0,0,0-.256-.107v-.835Zm-1.7.706.592.592a.969.969,0,0,0-.1.255h-.834A1.8,1.8,0,0,1,11.874,53.277Zm1.2.129a1,1,0,0,0-.256.107l-.591-.591a1.805,1.805,0,0,1,.847-.35v.834Zm-.842,2.416.589-.59a.973.973,0,0,0,.252.1v.837A1.788,1.788,0,0,1,12.234,55.823Zm-.71-1.2h.84a1,1,0,0,0,.1.251l-.592.593A1.814,1.814,0,0,1,11.524,54.627Z" transform="translate(-7.03 -44.305)" fill="#232323"/>
        <path id="Pfad_4" data-name="Pfad 4" d="M.014,38.009l.33,1.784a.853.853,0,0,0,.838.7H2.847a3.6,3.6,0,0,1-.135-.955,3.583,3.583,0,0,1,7.167,0c0,.1-.007.2-.015.305a3.518,3.518,0,0,1-.118.649H24.318a3.552,3.552,0,0,1-.135-.954,3.583,3.583,0,1,1,7.166,0c0,.1-.007.2-.015.305a3.553,3.553,0,0,1-.118.649h.423a9.346,9.346,0,0,0,.467-3.368,1.962,1.962,0,0,0-.7-1.154,5.4,5.4,0,0,0-.6-2.447,17.159,17.159,0,0,0-2.815-3.169,2.99,2.99,0,0,0-2.3-.872c-2.8-.007-9.25-.021-10.773,0a4.3,4.3,0,0,0-2.476.7.225.225,0,0,0-.107.25.222.222,0,0,0,.215.166H12.6L9.755,33.385s-1.124.006-1.5.021c-1.862.077-5.209.352-7.239,1.9a1.285,1.285,0,0,0-.5.86c-.057.444-.065.935-.065.935A.852.852,0,0,0,.014,38.009ZM23.375,30.6h2.939a1.43,1.43,0,0,1,.88.3,9.243,9.243,0,0,1,1.628,1.65.353.353,0,0,1-.275.567l-5.172.073V30.6Zm-1.565,0h.2v2.612l-.2,0ZM11.24,33.363,14.063,30.6h6.38v2.634l-6.765.1a.932.932,0,0,0,.008-.1.729.729,0,1,0-1.446,0,.979.979,0,0,0,.01.121Z" transform="translate(0.001 -29.471)" fill="#232323"/>
      </g>
    </g>
  </g>
</svg>
